<mxfile host="app.diagrams.net" modified="2023-06-12T14:02:56.678Z" agent="Mozilla/5.0 (Macintosh; Intel Mac OS X 10_15_7) AppleWebKit/537.36 (KHTML, like Gecko) Chrome/114.0.0.0 Safari/537.36" version="21.3.4" etag="7FQxzce0S_IPiwEl00pI" type="github">
  <diagram name="Page-1" id="q_A6y7JSMfjaracjJVO7">
    <mxGraphModel>
      <root>
        <mxCell id="0" />
        <mxCell id="1" parent="0" />
      </root>
    </mxGraphModel>
  </diagram>
</mxfile>
